<?xml version="1.0" encoding="UTF-8" standalone="no"?><svg xmlns="http://www.w3.org/2000/svg" xmlns:xlink="http://www.w3.org/1999/xlink" style="isolation:isolate" viewBox="0 0 512 512" width="512pt" height="512pt"><path d="M 6.945 64.024 L 6.97 64 L 141.249 64 L 505.055 415.571 C 514.318 424.523 514.318 439.059 505.055 448.012 L 505.03 448.035 L 370.75 448.035 L 6.945 96.465 C -2.319 87.512 -2.319 72.976 6.945 64.024 Z" style="stroke:none;fill:#C74A44;stroke-miterlimit:10;"/><path d="M 6.945 280.36 L 6.97 280.337 L 141.249 280.337 L 281.189 415.571 C 290.453 424.523 290.453 439.059 281.189 448.012 L 281.165 448.035 L 146.885 448.035 L 6.945 312.801 C -2.319 303.849 -2.319 289.313 6.945 280.36 Z" style="stroke:none;fill:#3F5F74;stroke-miterlimit:10;"/><path d="M 230.81 64.024 L 230.835 64 L 365.114 64 L 505.055 199.234 C 514.318 208.186 514.318 222.723 505.055 231.675 L 505.03 231.699 L 370.75 231.699 L 230.81 96.465 C 221.546 87.512 221.546 72.976 230.81 64.024 Z" style="stroke:none;fill:#3F5F74;stroke-miterlimit:10;"/></svg>