<?xml version="1.0" encoding="UTF-8" standalone="no"?><svg xmlns="http://www.w3.org/2000/svg" xmlns:xlink="http://www.w3.org/1999/xlink" style="isolation:isolate" viewBox="0 0 2100 512" width="2100pt" height="512pt"><path d=" M 832.891 129.828 L 762.188 304.229 L 908.307 304.229 L 837.604 129.828 L 832.891 129.828 L 832.891 129.828 Z  M 781.042 89.763 L 889.453 89.763 L 1023.788 419.71 L 955.913 419.71 L 924.804 339.58 L 745.69 339.58 L 714.581 419.71 L 646.707 419.71 L 781.042 89.763 L 781.042 89.763 Z  M 1035.711 422.067 L 1035.711 393.785 L 1049.852 393.785 L 1049.852 393.785 Q 1055.98 393.785 1061.164 391.193 L 1061.164 391.193 L 1061.164 391.193 Q 1066.349 388.601 1070.356 382.473 L 1070.356 382.473 L 1070.356 382.473 Q 1074.362 376.345 1076.955 365.976 L 1076.955 365.976 L 1076.955 365.976 Q 1079.547 355.606 1080.49 339.58 L 1080.49 339.58 L 1089.917 174.607 L 1316.166 174.607 L 1316.166 419.71 L 1250.177 419.71 L 1250.177 207.601 L 1151.193 207.601 L 1144.122 339.58 L 1144.122 339.58 Q 1141.766 387.187 1121.733 406.983 L 1121.733 406.983 L 1121.733 406.983 Q 1101.701 426.78 1066.349 426.78 L 1066.349 426.78 L 1066.349 426.78 Q 1055.037 426.78 1045.61 424.423 L 1045.61 424.423 L 1045.61 424.423 Q 1040.425 423.481 1035.711 422.067 L 1035.711 422.067 L 1035.711 422.067 Z  M 1523.919 396.142 L 1523.919 396.142 L 1523.919 396.142 Q 1547.016 396.142 1567.048 388.129 L 1567.048 388.129 L 1567.048 388.129 Q 1587.081 380.116 1606.406 365.504 L 1606.406 365.504 L 1625.26 393.785 L 1625.26 393.785 Q 1616.304 401.798 1604.285 408.397 L 1604.285 408.397 L 1604.285 408.397 Q 1592.265 414.996 1578.361 419.474 L 1578.361 419.474 L 1578.361 419.474 Q 1564.456 423.952 1549.372 426.544 L 1549.372 426.544 L 1549.372 426.544 Q 1534.289 429.137 1519.206 429.137 L 1519.206 429.137 L 1519.206 429.137 Q 1485.74 429.137 1458.166 420.417 L 1458.166 420.417 L 1458.166 420.417 Q 1430.592 411.697 1411.266 394.964 L 1411.266 394.964 L 1411.266 394.964 Q 1391.941 378.231 1381.335 353.721 L 1381.335 353.721 L 1381.335 353.721 Q 1370.73 329.21 1370.73 297.158 L 1370.73 297.158 L 1370.73 297.158 Q 1370.73 265.578 1380.864 240.832 L 1380.864 240.832 L 1380.864 240.832 Q 1390.998 216.086 1409.145 199.353 L 1409.145 199.353 L 1409.145 199.353 Q 1427.292 182.62 1452.274 173.9 L 1452.274 173.9 L 1452.274 173.9 Q 1477.256 165.18 1507.422 165.18 L 1507.422 165.18 L 1507.422 165.18 Q 1535.703 165.18 1560.685 173.664 L 1560.685 173.664 L 1560.685 173.664 Q 1585.666 182.148 1604.049 198.41 L 1604.049 198.41 L 1604.049 198.41 Q 1622.432 214.672 1633.273 237.768 L 1633.273 237.768 L 1633.273 237.768 Q 1644.114 260.864 1644.114 290.088 L 1644.114 290.088 L 1644.114 323.083 L 1442.847 323.083 L 1442.847 323.083 Q 1448.503 362.205 1469.95 379.174 L 1469.95 379.174 L 1469.95 379.174 Q 1491.396 396.142 1523.919 396.142 Z  M 1507.422 195.818 L 1507.422 195.818 L 1507.422 195.818 Q 1493.753 195.818 1481.969 201.003 L 1481.969 201.003 L 1481.969 201.003 Q 1470.185 206.187 1461.465 217.5 L 1461.465 217.5 L 1461.465 217.5 Q 1452.745 228.812 1447.325 246.724 L 1447.325 246.724 L 1447.325 246.724 Q 1441.904 264.635 1441.433 290.088 L 1441.433 290.088 L 1573.411 290.088 L 1573.411 290.088 Q 1573.411 265.578 1567.755 247.666 L 1567.755 247.666 L 1567.755 247.666 Q 1562.099 229.755 1552.908 218.207 L 1552.908 218.207 L 1552.908 218.207 Q 1543.716 206.659 1531.697 201.238 L 1531.697 201.238 L 1531.697 201.238 Q 1519.677 195.818 1507.422 195.818 Z  M 1898.734 504.553 L 1832.745 504.553 L 1832.745 419.71 L 1825.674 419.71 L 1825.674 419.71 Q 1794.565 419.71 1769.112 411.225 L 1769.112 411.225 L 1769.112 411.225 Q 1743.659 402.741 1725.276 386.715 L 1725.276 386.715 L 1725.276 386.715 Q 1706.894 370.689 1696.76 348.064 L 1696.76 348.064 L 1696.76 348.064 Q 1686.625 325.439 1686.625 297.158 L 1686.625 297.158 L 1686.625 297.158 Q 1686.625 268.877 1696.76 246.252 L 1696.76 246.252 L 1696.76 246.252 Q 1706.894 223.627 1725.276 207.601 L 1725.276 207.601 L 1725.276 207.601 Q 1743.659 191.575 1769.112 183.091 L 1769.112 183.091 L 1769.112 183.091 Q 1794.565 174.607 1825.674 174.607 L 1825.674 174.607 L 1832.745 174.607 L 1832.745 89.763 L 1898.734 89.763 L 1898.734 174.607 L 1905.804 174.607 L 1905.804 174.607 Q 1936.913 174.607 1962.366 183.091 L 1962.366 183.091 L 1962.366 183.091 Q 1987.819 191.575 2006.202 207.601 L 2006.202 207.601 L 2006.202 207.601 Q 2024.585 223.627 2034.719 246.252 L 2034.719 246.252 L 2034.719 246.252 Q 2044.853 268.877 2044.853 297.158 L 2044.853 297.158 L 2044.853 297.158 Q 2044.853 325.439 2034.719 348.064 L 2034.719 348.064 L 2034.719 348.064 Q 2024.585 370.689 2006.202 386.715 L 2006.202 386.715 L 2006.202 386.715 Q 1987.819 402.741 1962.366 411.225 L 1962.366 411.225 L 1962.366 411.225 Q 1936.913 419.71 1905.804 419.71 L 1905.804 419.71 L 1898.734 419.71 L 1898.734 504.553 L 1898.734 504.553 Z  M 1825.674 386.715 L 1832.745 386.715 L 1832.745 207.601 L 1825.674 207.601 L 1825.674 207.601 Q 1811.534 207.601 1799.043 212.551 L 1799.043 212.551 L 1799.043 212.551 Q 1786.552 217.5 1777.361 228.341 L 1777.361 228.341 L 1777.361 228.341 Q 1768.169 239.182 1762.749 256.151 L 1762.749 256.151 L 1762.749 256.151 Q 1757.328 273.119 1757.328 297.158 L 1757.328 297.158 L 1757.328 297.158 Q 1757.328 321.197 1762.749 338.166 L 1762.749 338.166 L 1762.749 338.166 Q 1768.169 355.135 1777.361 365.976 L 1777.361 365.976 L 1777.361 365.976 Q 1786.552 376.817 1799.043 381.766 L 1799.043 381.766 L 1799.043 381.766 Q 1811.534 386.715 1825.674 386.715 L 1825.674 386.715 L 1825.674 386.715 Z  M 1905.804 207.601 L 1898.734 207.601 L 1898.734 386.715 L 1905.804 386.715 L 1905.804 386.715 Q 1919.945 386.715 1932.435 381.766 L 1932.435 381.766 L 1932.435 381.766 Q 1944.926 376.817 1954.118 365.976 L 1954.118 365.976 L 1954.118 365.976 Q 1963.309 355.135 1968.73 338.166 L 1968.73 338.166 L 1968.73 338.166 Q 1974.15 321.197 1974.15 297.158 L 1974.15 297.158 L 1974.15 297.158 Q 1974.15 273.119 1968.73 256.151 L 1968.73 256.151 L 1968.73 256.151 Q 1963.309 239.182 1954.118 228.341 L 1954.118 228.341 L 1954.118 228.341 Q 1944.926 217.5 1932.435 212.551 L 1932.435 212.551 L 1932.435 212.551 Q 1919.945 207.601 1905.804 207.601 L 1905.804 207.601 L 1905.804 207.601 Z " fill="rgb(0,0,0)"/><path d="M 70.948 64.024 L 70.972 64 L 205.252 64 L 569.057 415.571 C 578.321 424.523 578.321 439.059 569.057 448.012 L 569.033 448.035 L 434.753 448.035 L 70.948 96.465 C 61.684 87.512 61.684 72.976 70.948 64.024 Z" style="stroke:none;fill:#C74A44;stroke-miterlimit:10;"/><path d="M 70.948 280.36 L 70.972 280.337 L 205.252 280.337 L 345.192 415.571 C 354.456 424.523 354.456 439.059 345.192 448.012 L 345.168 448.035 L 210.888 448.035 L 70.948 312.801 C 61.684 303.849 61.684 289.313 70.948 280.36 Z" style="stroke:none;fill:#3F5F74;stroke-miterlimit:10;"/><path d="M 294.813 64.024 L 294.838 64 L 429.117 64 L 569.057 199.234 C 578.321 208.186 578.321 222.723 569.057 231.675 L 569.033 231.699 L 434.753 231.699 L 294.813 96.465 C 285.549 87.512 285.549 72.976 294.813 64.024 Z" style="stroke:none;fill:#3F5F74;stroke-miterlimit:10;"/></svg>